<svg width="390" height="403" viewBox="0 0 390 403" fill="none" xmlns="http://www.w3.org/2000/svg">
<path d="M194.858 56.9063C219.862 56.9063 243.332 63.5768 263.595 75.1236L292.316 25.8999C263.641 9.43071 230.365 0 194.858 0C159.351 0 126.121 9.43071 97.4462 25.8999L126.168 75.1236C146.384 63.5308 169.854 56.9063 194.858 56.9063Z" fill="#08006F"/>
<path d="M297.952 45.6357L269.184 94.9514C307.107 119.241 332.297 161.38 332.297 209.316C332.297 257.252 304.644 303.531 263.56 327.085C243.344 338.678 219.874 345.348 194.824 345.348C169.774 345.348 146.35 338.678 126.087 327.131C85.0029 303.531 57.3503 259.552 57.3503 209.316C57.3503 159.08 82.5398 119.195 120.463 94.9514L91.6954 45.6357C36.7153 79.7243 0 140.311 0 209.27C0 278.229 39.225 342.864 97.4583 376.309C126.133 392.778 159.41 402.208 194.917 402.208C230.424 402.208 263.653 392.778 292.375 376.309C350.562 342.864 389.833 280.529 389.833 209.27C389.833 138.011 353.118 79.7243 298.045 45.6357H297.952Z" fill="#08006F"/>
</svg>
