<svg width="304" height="56" viewBox="0 0 304 56" fill="none" xmlns="http://www.w3.org/2000/svg">
<g clip-path="url(#clip0_2712_15840)">
<path d="M27.0751 7.90706C30.5493 7.90706 33.8104 8.83392 36.6259 10.4383L40.6168 3.59877C36.6324 1.31039 32.0087 0 27.0751 0C22.1414 0 17.5242 1.31039 13.5398 3.59877L17.5306 10.4383C20.3397 8.82753 23.6008 7.90706 27.0751 7.90706Z" fill="white"/>
<path d="M41.4001 6.34103L37.4028 13.1934C42.6722 16.5684 46.1723 22.4236 46.1723 29.0842C46.1723 35.7448 42.33 42.1753 36.6214 45.4481C33.8123 47.0589 30.5512 47.9857 27.0705 47.9857C23.5898 47.9857 20.3352 47.0589 17.5196 45.4545C11.8111 42.1753 7.96876 36.0644 7.96876 29.0842C7.96876 22.104 11.4688 16.562 16.7383 13.1934L12.741 6.34103C5.10155 11.0776 0 19.496 0 29.0778C0 38.6596 5.45027 47.6406 13.5417 52.2877C17.5261 54.576 22.1498 55.8864 27.0834 55.8864C32.0171 55.8864 36.6343 54.576 40.6252 52.2877C48.7102 47.6406 54.1669 38.9792 54.1669 29.0778C54.1669 19.1764 49.0653 11.0776 41.413 6.34103H41.4001Z" fill="white"/>
<path d="M64.783 25.2042V2.38425H73.0165C75.6706 2.38425 77.8727 2.88284 79.6227 3.88641C81.3662 4.88997 82.6771 6.2451 83.5425 7.96458C84.4078 9.68407 84.8469 11.6401 84.8469 13.8326C84.8469 16.0251 84.4143 17.9555 83.5425 19.6686C82.6771 21.3881 81.3662 22.7432 79.6227 23.7276C77.8791 24.7184 75.677 25.2106 73.0165 25.2106H64.783V25.2042ZM72.4611 6.488H69.4002V21.094H72.4611C74.2822 21.094 75.7545 20.7744 76.8782 20.1288C77.9953 19.4896 78.809 18.6203 79.3127 17.5208C79.8164 16.4214 80.0683 15.1877 80.0683 13.8198C80.0683 12.4519 79.8164 11.1862 79.3127 10.0868C78.809 8.98733 77.9953 8.118 76.8782 7.45961C75.761 6.80761 74.2886 6.48161 72.4611 6.48161V6.488Z" fill="white"/>
<path d="M94.9672 25.6323C93.4109 25.6323 91.9838 25.236 90.6987 24.4433C89.4136 23.6507 88.3933 22.5832 87.6378 21.2473C86.8822 19.9113 86.5012 18.4283 86.5012 16.7984C86.5012 15.5838 86.7208 14.4333 87.1599 13.3594C87.599 12.2855 88.206 11.3395 88.9745 10.5213C89.743 9.70948 90.6341 9.06387 91.6609 8.59725C92.6812 8.13062 93.7855 7.89411 94.9737 7.89411C96.4654 7.89411 97.6278 8.16897 98.4673 8.72509C99.3068 9.2812 99.9525 10.0163 100.411 10.924V8.25207H104.828V25.204H100.514V22.4362C100.056 23.3886 99.3972 24.1621 98.5577 24.7502C97.7117 25.3382 96.5171 25.6323 94.9801 25.6323H94.9672ZM95.6905 21.65C96.6785 21.65 97.5309 21.4263 98.2413 20.9788C98.9581 20.5314 99.507 19.9433 99.9073 19.2018C100.301 18.4603 100.501 17.6613 100.501 16.792C100.501 15.9226 100.301 15.0853 99.9073 14.3438C99.5134 13.6087 98.9581 13.0078 98.2413 12.554C97.5245 12.1001 96.6785 11.87 95.6905 11.87C94.7025 11.87 93.9146 12.0937 93.2043 12.5348C92.4875 12.9822 91.9386 13.5703 91.5382 14.3118C91.1443 15.0533 90.9441 15.8651 90.9441 16.76C90.9441 17.6549 91.1443 18.4092 91.5382 19.157C91.9321 19.9049 92.4875 20.5122 93.2043 20.966C93.9146 21.4199 94.7477 21.65 95.6905 21.65Z" fill="white"/>
<path d="M107.451 25.2042V8.25229H111.829V10.7324C112.726 8.82119 114.476 7.86237 117.066 7.86237C118.293 7.86237 119.404 8.14363 120.392 8.71253C121.38 9.28143 122.161 10.0804 122.729 11.1224C123.298 12.1643 123.588 13.4043 123.588 14.8362V25.2042H119.139V15.9101C119.139 14.4335 118.797 13.3596 118.119 12.7012C117.441 12.0364 116.549 11.704 115.452 11.704C114.509 11.704 113.676 12.0364 112.965 12.7012C112.249 13.366 111.893 14.4335 111.893 15.9101V25.2042H107.444H107.451Z" fill="white"/>
<path d="M126.06 25.2042V8.25229H130.438V10.7324C131.336 8.82119 133.086 7.86237 135.675 7.86237C136.883 7.86237 137.968 8.13724 138.936 8.69335C139.905 9.24947 140.673 10.0357 141.242 11.0584C141.816 10.0357 142.546 9.24947 143.431 8.69335C144.322 8.13724 145.523 7.86237 147.034 7.86237C148.261 7.86237 149.372 8.14363 150.36 8.71253C151.348 9.27503 152.129 10.0804 152.698 11.1224C153.266 12.1643 153.557 13.4043 153.557 14.8362V25.2042H149.107V15.9101C149.107 14.4335 148.791 13.3596 148.151 12.7012C147.512 12.0364 146.692 11.704 145.685 11.704C144.677 11.704 143.812 11.9981 143.166 12.5862C142.52 13.1742 142.191 14.2801 142.191 15.9101V25.2042H137.742V15.9101C137.742 14.4335 137.399 13.3596 136.721 12.7012C136.043 12.0364 135.152 11.704 134.054 11.704C133.112 11.704 132.279 12.0364 131.568 12.7012C130.851 13.366 130.496 14.4335 130.496 15.9101V25.2042H126.047H126.06Z" fill="white"/>
<path d="M164.34 25.6323C162.784 25.6323 161.357 25.236 160.072 24.4433C158.787 23.6507 157.766 22.5832 157.011 21.2473C156.255 19.9113 155.874 18.4283 155.874 16.7984C155.874 15.5838 156.094 14.4333 156.533 13.3594C156.972 12.2855 157.579 11.3395 158.348 10.5213C159.116 9.70948 160.007 9.06387 161.034 8.59725C162.054 8.13062 163.159 7.89411 164.347 7.89411C165.838 7.89411 167.001 8.16897 167.84 8.72509C168.68 9.2812 169.326 10.0163 169.784 10.924V8.25207H174.201V25.204H169.887V22.4362C169.429 23.3886 168.77 24.1621 167.931 24.7502C167.085 25.3382 165.89 25.6323 164.353 25.6323H164.34ZM165.064 21.65C166.052 21.65 166.904 21.4263 167.614 20.9788C168.331 20.5314 168.88 19.9433 169.28 19.2018C169.674 18.4603 169.874 17.6613 169.874 16.792C169.874 15.9226 169.674 15.0853 169.28 14.3438C168.886 13.6087 168.331 13.0078 167.614 12.554C166.897 12.1001 166.052 11.87 165.064 11.87C164.075 11.87 163.288 12.0937 162.577 12.5348C161.861 12.9822 161.312 13.5703 160.911 14.3118C160.517 15.0533 160.317 15.8651 160.317 16.76C160.317 17.6549 160.517 18.4092 160.911 19.157C161.305 19.9049 161.861 20.5122 162.577 20.966C163.288 21.4199 164.121 21.65 165.064 21.65Z" fill="white"/>
<path d="M177.329 25.2041V8.25215H181.642V11.4802C181.926 10.2657 182.508 9.33242 183.392 8.69321C184.271 8.054 185.459 7.77274 186.951 7.86223V12.0043H186.324C185.052 12.0043 183.974 12.407 183.095 13.2124C182.217 14.0179 181.778 15.1237 181.778 16.5363V25.2105H177.329V25.2041Z" fill="white"/>
<path d="M188.926 25.204V1.40607H193.375V15.098L199.801 8.25204H206.123L198.051 16.1399L206.155 25.204H200.259L193.375 17.1499V25.204H188.926Z" fill="white"/>
<path d="M212.717 25.6328C209.837 25.6328 207.467 24.642 205.6 22.6668L208.597 19.963C209.849 21.3565 211.186 22.0468 212.613 22.0468C213.382 22.0468 213.969 21.8806 214.376 21.5418C214.783 21.203 214.983 20.7876 214.983 20.2826C214.983 19.9758 214.912 19.7201 214.77 19.5027C214.628 19.2854 214.331 19.0809 213.879 18.8827C213.427 18.6845 212.755 18.4928 211.851 18.2946C210.314 17.9239 209.171 17.47 208.422 16.9267C207.673 16.3834 207.182 15.7761 206.937 15.0986C206.692 14.4274 206.575 13.7306 206.575 13.0147C206.575 11.5381 207.137 10.3045 208.274 9.31369C209.404 8.32291 210.967 7.83071 212.969 7.83071C214.35 7.83071 215.539 8.03526 216.527 8.45075C217.515 8.86624 218.451 9.63329 219.329 10.7647L216.101 13.2129C215.681 12.5609 215.216 12.0943 214.699 11.813C214.183 11.5318 213.64 11.3911 213.065 11.3911C212.452 11.3911 211.942 11.5126 211.535 11.7491C211.128 11.9856 210.928 12.3691 210.928 12.8869C210.928 13.1681 211.064 13.4494 211.322 13.7179C211.58 13.9863 212.219 14.2548 213.233 14.5169C214.899 14.9324 216.178 15.4118 217.056 15.9679C217.934 16.524 218.542 17.1504 218.864 17.8472C219.194 18.5439 219.362 19.3174 219.362 20.1611C219.362 21.203 219.071 22.1363 218.49 22.9673C217.909 23.7919 217.121 24.4439 216.12 24.9233C215.119 25.4027 213.982 25.6392 212.71 25.6392L212.717 25.6328Z" fill="white"/>
<path d="M64.783 54.0583V31.2384H69.3937V54.0583H64.783Z" fill="white"/>
<path d="M72.3588 54.0582V37.1063H76.7371V39.5864C77.6347 37.6752 79.3847 36.7164 81.9742 36.7164C83.2012 36.7164 84.3119 36.9976 85.2999 37.5665C86.2879 38.129 87.0693 38.9345 87.6376 39.9764C88.2059 41.0183 88.4965 42.2584 88.4965 43.6902V54.0582H84.0471V44.7641C84.0471 43.2875 83.7049 42.2136 83.0268 41.5552C82.3488 40.8904 81.4576 40.5581 80.3598 40.5581C79.417 40.5581 78.5839 40.8904 77.8736 41.5552C77.1568 42.22 76.8016 43.2875 76.8016 44.7641V54.0582H72.3523H72.3588Z" fill="white"/>
<path d="M90.9693 54.0582V37.1063H95.3476V39.5864C96.2453 37.6752 97.9953 36.7164 100.585 36.7164C101.812 36.7164 102.922 36.9976 103.911 37.5665C104.899 38.129 105.68 38.9345 106.248 39.9764C106.816 41.0183 107.107 42.2584 107.107 43.6902V54.0582H102.658V44.7641C102.658 43.2875 102.315 42.2136 101.637 41.5552C100.959 40.8904 100.068 40.5581 98.9704 40.5581C98.0276 40.5581 97.1945 40.8904 96.4842 41.5552C95.7674 42.22 95.4122 43.2875 95.4122 44.7641V54.0582H90.9629H90.9693Z" fill="white"/>
<path d="M118.046 54.4865C116.29 54.4865 114.72 54.0838 113.332 53.2784C111.95 52.473 110.865 51.3991 110.09 50.0632C109.309 48.7272 108.921 47.2442 108.921 45.6142C108.921 43.9842 109.309 42.4949 110.09 41.1461C110.872 39.7974 111.95 38.7235 113.332 37.9181C114.714 37.1127 116.283 36.71 118.046 36.71C119.809 36.71 121.398 37.1127 122.773 37.9181C124.142 38.7235 125.221 39.7974 126.002 41.1461C126.783 42.4949 127.171 43.9842 127.171 45.6142C127.171 47.2442 126.783 48.7272 126.002 50.0632C125.221 51.3991 124.149 52.473 122.773 53.2784C121.404 54.0838 119.822 54.4865 118.046 54.4865ZM118.046 50.4786C118.989 50.4786 119.815 50.2549 120.513 49.8075C121.21 49.36 121.759 48.7719 122.147 48.0305C122.534 47.289 122.721 46.49 122.721 45.6206C122.721 44.7513 122.528 43.9139 122.147 43.1724C121.766 42.431 121.217 41.8429 120.513 41.3954C119.809 40.948 118.989 40.7307 118.046 40.7307C117.103 40.7307 116.277 40.9544 115.573 41.3954C114.869 41.8429 114.326 42.431 113.939 43.1724C113.552 43.9139 113.364 44.7257 113.364 45.6206C113.364 46.5155 113.558 47.2954 113.939 48.0305C114.32 48.7719 114.869 49.36 115.573 49.8075C116.277 50.2549 117.097 50.4786 118.046 50.4786Z" fill="white"/>
<path d="M133.966 54.058L126.817 37.106H132.086L135.515 46.7901C135.825 47.6594 136.064 48.5607 136.239 49.494C136.413 48.5607 136.658 47.6594 136.962 46.7901L140.384 37.106H145.557L138.441 54.058H133.959H133.966Z" fill="white"/>
<path d="M153.602 54.4862C152.045 54.4862 150.618 54.0899 149.333 53.2973C148.048 52.5046 147.028 51.4372 146.272 50.1012C145.517 48.7653 145.136 47.2823 145.136 45.6523C145.136 44.4378 145.355 43.2872 145.794 42.2133C146.234 41.1394 146.841 40.1934 147.609 39.3752C148.377 38.5634 149.269 37.9178 150.295 37.4512C151.316 36.9846 152.42 36.748 153.608 36.748C155.1 36.748 156.262 37.0229 157.102 37.579C157.941 38.1351 158.587 38.8702 159.046 39.7779V37.106H163.463V54.0579H159.149V51.2901C158.69 52.2426 158.032 53.016 157.192 53.6041C156.346 54.1922 155.152 54.4862 153.615 54.4862H153.602ZM154.325 50.5039C155.313 50.5039 156.165 50.2802 156.876 49.8327C157.593 49.3853 158.141 48.7972 158.542 48.0557C158.936 47.3142 159.136 46.5152 159.136 45.6459C159.136 44.7766 158.936 43.9392 158.542 43.1977C158.148 42.4626 157.593 41.8617 156.876 41.4079C156.159 40.9541 155.313 40.724 154.325 40.724C153.337 40.724 152.549 40.9477 151.839 41.3887C151.122 41.8362 150.573 42.4243 150.173 43.1657C149.779 43.9072 149.579 44.719 149.579 45.6139C149.579 46.5088 149.779 47.2631 150.173 48.011C150.567 48.7589 151.122 49.3661 151.839 49.82C152.549 50.2738 153.382 50.5039 154.325 50.5039Z" fill="white"/>
<path d="M173.078 54.0583C171.386 54.0583 170.094 53.6492 169.19 52.8183C168.286 51.9873 167.841 50.6577 167.841 48.8104V40.8522H165.438V37.1H167.841V33.6738L172.29 33.22V37.1H175.913V40.8522H172.29V48.5803C172.29 49.6222 172.749 50.1464 173.672 50.1464H175.519V54.0583H173.084H173.078Z" fill="white"/>
<path d="M180.098 35.7064C179.349 35.7064 178.722 35.4507 178.206 34.9393C177.689 34.428 177.431 33.8143 177.431 33.0984C177.431 32.3825 177.689 31.8008 178.206 31.2894C178.722 30.7781 179.355 30.5224 180.098 30.5224C180.84 30.5224 181.505 30.7781 182.009 31.2894C182.513 31.8008 182.765 32.4017 182.765 33.0984C182.765 33.8399 182.513 34.4535 182.009 34.9585C181.505 35.4571 180.866 35.7064 180.098 35.7064ZM177.889 54.0582V37.1063H182.338V54.0582H177.889Z" fill="white"/>
<path d="M193.44 54.4865C191.684 54.4865 190.114 54.0838 188.726 53.2784C187.344 52.473 186.259 51.3991 185.484 50.0632C184.703 48.7272 184.315 47.2442 184.315 45.6142C184.315 43.9842 184.703 42.4949 185.484 41.1461C186.266 39.7974 187.344 38.7235 188.726 37.9181C190.108 37.1127 191.677 36.71 193.44 36.71C195.203 36.71 196.792 37.1127 198.167 37.9181C199.536 38.7235 200.615 39.7974 201.396 41.1461C202.177 42.4949 202.565 43.9842 202.565 45.6142C202.565 47.2442 202.177 48.7272 201.396 50.0632C200.615 51.3991 199.543 52.473 198.167 53.2784C196.798 54.0838 195.216 54.4865 193.44 54.4865ZM193.44 50.4786C194.383 50.4786 195.209 50.2549 195.907 49.8075C196.604 49.36 197.153 48.7719 197.541 48.0305C197.928 47.289 198.115 46.49 198.115 45.6206C198.115 44.7513 197.922 43.9139 197.541 43.1724C197.16 42.431 196.611 41.8429 195.907 41.3954C195.203 40.948 194.383 40.7307 193.44 40.7307C192.497 40.7307 191.671 40.9544 190.967 41.3954C190.263 41.8429 189.72 42.431 189.333 43.1724C188.946 43.9139 188.758 44.7257 188.758 45.6206C188.758 46.5155 188.952 47.2954 189.333 48.0305C189.714 48.7719 190.263 49.36 190.967 49.8075C191.671 50.2549 192.491 50.4786 193.44 50.4786Z" fill="white"/>
<path d="M204.541 54.0582V37.1063H208.919V39.5864C209.817 37.6752 211.567 36.7164 214.157 36.7164C215.384 36.7164 216.494 36.9976 217.482 37.5665C218.47 38.1354 219.252 38.9345 219.82 39.9764C220.388 41.0183 220.679 42.2584 220.679 43.6902V54.0582H216.229V44.7641C216.229 43.2875 215.887 42.2136 215.209 41.5552C214.531 40.8904 213.64 40.5581 212.542 40.5581C211.599 40.5581 210.766 40.8904 210.056 41.5552C209.339 42.22 208.984 43.2875 208.984 44.7641V54.0582H204.535H204.541Z" fill="white"/>
<path d="M229.014 54.4869C226.133 54.4869 223.763 53.4961 221.897 51.5209L224.894 48.8171C226.146 50.2106 227.483 50.9009 228.91 50.9009C229.679 50.9009 230.266 50.7347 230.673 50.3959C231.08 50.0571 231.28 49.6417 231.28 49.1367C231.28 48.8299 231.209 48.5742 231.067 48.3568C230.925 48.1395 230.628 47.935 230.176 47.7368C229.724 47.5386 229.052 47.3469 228.148 47.1487C226.611 46.778 225.468 46.3241 224.719 45.7808C223.97 45.2375 223.479 44.6302 223.234 43.9527C222.989 43.2815 222.872 42.5847 222.872 41.8688C222.872 40.3922 223.434 39.1586 224.571 38.1678C225.701 37.177 227.264 36.6848 229.265 36.6848C230.647 36.6848 231.836 36.8894 232.824 37.3048C233.812 37.7203 234.748 38.4874 235.626 39.6188L232.397 42.067C231.978 41.415 231.513 40.9484 230.996 40.6671C230.479 40.3859 229.937 40.2452 229.362 40.2452C228.749 40.2452 228.239 40.3667 227.832 40.6032C227.425 40.8397 227.225 41.2232 227.225 41.741C227.225 42.0222 227.36 42.3035 227.619 42.572C227.877 42.8404 228.516 43.1089 229.53 43.371C231.196 43.7865 232.475 44.2659 233.353 44.822C234.231 45.3781 234.838 46.0045 235.161 46.7013C235.491 47.398 235.658 48.1715 235.658 49.0152C235.658 50.0571 235.368 50.9904 234.787 51.8214C234.206 52.646 233.418 53.298 232.417 53.7774C231.416 54.2568 230.279 54.4933 229.007 54.4933L229.014 54.4869Z" fill="white"/>
<path d="M239.057 54.0586V40.8525H236.655V37.1003H239.057V35.9561C239.057 34.2366 239.573 32.8559 240.607 31.814C241.64 30.7721 243.022 30.2479 244.759 30.2479H246.606V33.9937H245.45C244.152 33.9937 243.506 34.6713 243.506 36.02V37.0939H247V40.8461H243.506V54.0522H239.057V54.0586Z" fill="white"/>
<path d="M256.621 54.4865C254.864 54.4865 253.295 54.0838 251.913 53.2784C250.531 52.473 249.446 51.3991 248.665 50.0632C247.883 48.7272 247.496 47.2442 247.496 45.6142C247.496 43.9842 247.883 42.4949 248.665 41.1461C249.446 39.7974 250.524 38.7235 251.913 37.9181C253.295 37.1127 254.864 36.71 256.621 36.71C258.377 36.71 259.972 37.1127 261.348 37.9181C262.717 38.7235 263.795 39.7974 264.576 41.1461C265.358 42.4949 265.745 43.9842 265.745 45.6142C265.745 47.2442 265.358 48.7272 264.576 50.0632C263.795 51.3991 262.723 52.473 261.348 53.2784C259.972 54.0838 258.396 54.4865 256.621 54.4865ZM256.621 50.4786C257.563 50.4786 258.39 50.2549 259.094 49.8075C259.798 49.36 260.34 48.7719 260.728 48.0305C261.109 47.289 261.302 46.49 261.302 45.6206C261.302 44.7513 261.109 43.9139 260.728 43.1724C260.34 42.431 259.798 41.8429 259.094 41.3954C258.39 40.948 257.57 40.7307 256.621 40.7307C255.671 40.7307 254.851 40.9544 254.147 41.3954C253.443 41.8429 252.901 42.431 252.513 43.1724C252.132 43.9139 251.939 44.7257 251.939 45.6206C251.939 46.5155 252.132 47.2954 252.513 48.0305C252.901 48.7719 253.443 49.36 254.147 49.8075C254.851 50.2549 255.671 50.4786 256.621 50.4786Z" fill="white"/>
<path d="M267.722 54.0582V37.1063H272.1V39.5864C272.997 37.6752 274.747 36.7164 277.337 36.7164C278.564 36.7164 279.675 36.9976 280.663 37.5665C281.651 38.129 282.432 38.9345 283 39.9764C283.569 41.0183 283.859 42.2584 283.859 43.6902V54.0582H279.41V44.7641C279.41 43.2875 279.068 42.2136 278.39 41.5552C277.712 40.8904 276.82 40.5581 275.723 40.5581C274.78 40.5581 273.947 40.8904 273.236 41.5552C272.52 42.22 272.164 43.2875 272.164 44.7641V54.0582H267.715H267.722Z" fill="white"/>
<path d="M294.139 54.4863C292.583 54.4863 291.156 54.09 289.871 53.2974C288.586 52.5048 287.565 51.4373 286.81 50.1013C286.054 48.7654 285.673 47.2824 285.673 45.6524C285.673 44.4379 285.893 43.2873 286.332 42.2134C286.771 41.1396 287.378 40.1935 288.146 39.3753C288.915 38.5635 289.806 37.9179 290.833 37.4513C291.853 36.9847 292.957 36.7482 294.146 36.7482C295.618 36.7482 296.767 37.023 297.607 37.5664C298.44 38.1097 299.092 38.8256 299.551 39.7205V30.2666H304V54.0708H299.686V51.3031C299.228 52.2555 298.569 53.0289 297.73 53.617C296.884 54.2051 295.689 54.4991 294.152 54.4991L294.139 54.4863ZM294.862 50.504C295.85 50.504 296.703 50.2803 297.413 49.8329C298.13 49.3854 298.679 48.7973 299.079 48.0559C299.473 47.3144 299.673 46.5154 299.673 45.646C299.673 44.7767 299.473 43.9393 299.079 43.1978C298.685 42.4627 298.13 41.8619 297.413 41.408C296.696 40.9542 295.85 40.7241 294.862 40.7241C293.874 40.7241 293.086 40.9478 292.376 41.3889C291.659 41.8363 291.11 42.4244 290.71 43.1659C290.316 43.9074 290.116 44.7192 290.116 45.6141C290.116 46.509 290.316 47.2632 290.71 48.0111C291.104 48.759 291.659 49.3662 292.376 49.8201C293.086 50.2739 293.92 50.504 294.862 50.504Z" fill="white"/>
</g>
<defs>
<clipPath id="clip0_2712_15840">
<rect width="304" height="55.8864" fill="white"/>
</clipPath>
</defs>
</svg>
